<?xml version="1.0" encoding="utf-8"?>
<!-- Generator: Adobe Illustrator 21.0.0, SVG Export Plug-In . SVG Version: 6.00 Build 0)  -->
<svg version="1.1" id="Layer_1" xmlns="http://www.w3.org/2000/svg" xmlns:xlink="http://www.w3.org/1999/xlink" x="0px" y="0px"
	 viewBox="0 0 612 792" style="enable-background:new 0 0 612 792;" xml:space="preserve">
<style type="text/css">
	.st0{fill:#FFFFFF;}
	.st1{fill:#EE3124;}
</style>
<rect x="72.1" y="69" width="280.9" height="76"/>
<g>
	<g>
		<g>
			<path class="st0" d="M177.6,124.1l-3.1,15.7h-11.5l14.4-65.5h14.1l13.1,65.5h-11.6l-3.1-15.7H177.6z M188.7,114.9l-2.4-14.2
				c-0.7-4.1-1.6-10.5-2.2-14.9h-0.3c-0.7,4.5-1.7,11-2.4,14.9l-2.6,14.2H188.7z"/>
			<path class="st0" d="M239.2,73.9v52.3c0,4.2,0.2,9.3,0.4,13.2h-10l-0.7-5.3h-0.2c-1.7,3.3-5.3,6.1-9.7,6.1
				c-9.6,0-14.3-10.5-14.3-23.8c0-16.2,7.1-24,14.8-24c4,0,6.6,2,7.9,4.8h0.2V73.9H239.2z M227.6,111c0-0.8,0-1.8-0.2-2.8
				c-0.4-3.2-2.1-6-4.8-6c-4.6,0-6.4,6.7-6.4,14.5c0,9,2.4,14.1,6.2,14.1c1.7,0,3.7-0.9,4.8-4.6c0.3-0.7,0.4-1.8,0.4-2.9V111z"/>
			<path class="st0" d="M259.1,139.8c-10.3,0-16.8-8.3-16.8-23.1c0-16.2,8.3-23.3,17.1-23.3c10.2,0,16.6,8.7,16.6,23.1
				C276,135,266,139.8,259.1,139.8L259.1,139.8z M259.3,131.2c4.3,0,5.3-8,5.3-14.7c0-6.3-1.1-14.6-5.5-14.6
				c-4.7,0-5.7,8.2-5.7,14.6C253.4,124.2,254.7,131.2,259.3,131.2L259.3,131.2z"/>
			<path class="st0" d="M278.4,73.9h11.6v24.1h0.2c2.3-3.6,5.3-5.6,9.7-5.6c8.7,0,13.1,9.9,13.1,22.8c0,16.3-6.5,25.1-15,25.1
				c-4,0-6.7-1.8-9.1-6.3h-0.2l-0.7,5.5H278c0.2-3.9,0.4-9.1,0.4-13.2V73.9z M289.9,123c0,1.1,0.2,2.2,0.5,3
				c1.2,3.9,3.1,4.8,4.7,4.8c4.5,0,6.3-5.6,6.3-14.7c0-8.2-1.9-13.9-6.3-13.9c-2.2,0-4,2.4-4.7,4.9c-0.2,0.8-0.4,2-0.4,2.9V123z"/>
			<path class="st0" d="M325.5,121.2c0.1,8,4.4,10.6,9.6,10.6c3.3,0,6.2-0.7,8.3-1.5l1.5,7.9c-2.9,1.3-7.5,2.1-11.8,2.1
				c-11.9,0-18.3-8.1-18.3-21.9c0-14.8,7.5-23.7,17.3-23.7c9.5,0,14.7,7.8,14.7,20.7c0,2.9-0.1,4.6-0.3,5.9L325.5,121.2z
				 M336.6,113.4c0.1-6.2-1.8-10.6-5.3-10.6c-4,0-5.7,5.8-5.8,10.6H336.6z"/>
			<polygon class="st1" points="124.5,74.4 151.5,74.4 151.5,138.9 			"/>
			<polygon class="st1" points="105.4,74.4 78.3,74.4 78.3,138.9 			"/>
			<polygon class="st1" points="114.9,98.2 132.2,138.9 120.9,138.9 115.7,126 103.1,126 			"/>
		</g>
	</g>
</g>
</svg>
